Coordinates
version=1
nRows=14
nColumns=40
inDegrees=yes

Units are S.I. units (second, meters, Newtons, ...)
Angles are in degrees.

endheader
time	pelvis_tilt	pelvis_list	pelvis_rotation	pelvis_tx	pelvis_ty	pelvis_tz	hip_flexion_r	hip_adduction_r	hip_rotation_r	knee_angle_r	knee_angle_r_beta	ankle_angle_r	subtalar_angle_r	mtp_angle_r	hip_flexion_l	hip_adduction_l	hip_rotation_l	knee_angle_l	knee_angle_l_beta	ankle_angle_l	subtalar_angle_l	mtp_angle_l	lumbar_extension	lumbar_bending	lumbar_rotation	arm_flex_r	arm_add_r	arm_rot_r	elbow_flex_r	pro_sup_r	wrist_flex_r	wrist_dev_r	arm_flex_l	arm_add_l	arm_rot_l	elbow_flex_l	pro_sup_l	wrist_flex_l	wrist_dev_l
     20.19000000	     -3.27595405	     -3.38357282	      4.75638396	      0.96406694	      0.92069098	      0.56131563	     15.73110005	      3.57595732	     -6.39663101	     26.57927657	     26.57927657	     16.38879065	     -4.62776339	     -1.60977995	     25.63792011	    -15.43312255	      6.03245984	     60.66436905	     60.66436905	      6.50336946	     -9.85838112	      2.01385589	     -9.76042916	      3.63085603	     -0.55707665	     11.64627827	    -18.71334968	     -5.85575676	     42.24262384	     40.50401880	      0.00000000	      0.00000000	     10.85350070	     -7.66161253	     -8.65773299	     29.26798308	     40.88505769	      0.00000000	      0.00000000
     20.21121429	     -2.94956825	     -3.40761226	      5.30850271	      0.96301637	      0.91891224	      0.56312434	     15.68150429	      3.83057650	     -6.23625759	     27.54512880	     27.54512880	     16.91289288	     -5.93615496	     -1.71160126	     27.11477245	    -15.06284194	      6.69186785	     61.51694567	     61.51694567	      6.37619581	    -12.40668268	      2.46246964	     -9.93588330	      3.60508079	     -0.43615152	     14.57289623	    -18.51381262	     -6.12188429	     43.71701189	     40.55257138	      0.00000000	      0.00000000	      8.28655806	     -7.45694573	     -8.07129796	     26.98018563	     40.85390693	      0.00000000	      0.00000000
     20.23242857	     -2.55620698	     -3.52036625	      5.90455737	      0.96188819	      0.91720630	      0.56484852	     15.55769494	      4.14622198	     -6.27715630	     28.49786316	     28.49786316	     17.43975414	     -6.95769948	     -1.83624525	     28.51776008	    -14.80708911	      7.27562665	     62.03227474	     62.03227474	      6.32646580	    -14.70273953	      2.95736715	    -10.28623870	      3.71653055	     -0.01732274	     17.56324138	    -18.58814271	     -6.42527690	     45.29196134	     40.56978762	      0.00000000	      0.00000000	      5.79388928	     -7.14937579	     -7.66043663	     25.14717719	     40.81254474	      0.00000000	      0.00000000
     20.25364286	     -2.29702829	     -3.49922864	      6.56640853	      0.96082921	      0.91570195	      0.56638804	     15.44423145	      4.33436086	     -6.23764251	     29.23988032	     29.23988032	     17.93605338	     -8.09150467	     -1.78397919	     29.88940810	    -14.36925477	      7.69996403	     61.96787807	     61.96787807	      6.30937347	    -16.77035209	      3.83373916	    -10.41198414	      3.64467397	     -0.19446684	     20.68393046	    -18.23018122	     -6.76709977	     47.22019425	     40.59575958	      0.00000000	      0.00000000	      3.02979455	     -7.12127424	     -7.07019473	     22.91499185	     40.75813505	      0.00000000	      0.00000000
     20.27485714	     -2.02405467	     -3.55879856	      7.23802595	      0.95974262	      0.91463735	      0.56772780	     15.17390249	      4.58415706	     -6.36748452	     29.69386116	     29.69386116	     18.37168611	     -8.94562740	     -1.60348080	     31.12673657	    -14.15314853	      7.84631676	     61.33382505	     61.33382505	      6.69298516	    -17.87931986	      5.10055114	    -10.58674332	      3.73278202	     -0.06781583	     23.75375206	    -18.07004915	     -7.17518848	     49.02470691	     40.65558254	      0.00000000	      0.00000000	      0.53719669	     -7.01999813	     -6.30594850	     20.99428368	     40.68627014	      0.00000000	      0.00000000
     20.29607143	     -1.82531143	     -3.60981221	      7.95858095	      0.95860492	      0.91400333	      0.56869242	     14.88955378	      4.75597702	     -6.66984963	     29.99453308	     29.99453308	     18.98927017	     -9.37741173	     -0.64483844	     32.28329450	    -13.84515473	      7.94195069	     60.17113118	     60.17113118	      7.98098191	    -18.24072851	      8.63869234	    -10.70466554	      3.82719238	      0.66281111	     26.22456438	    -18.29372538	     -8.24724518	     51.24143024	     42.76628322	      0.00000000	      0.00000000	     -2.69363983	     -8.31814688	      6.99944671	     21.84334290	     40.44288285	      0.00000000	      0.00000000
     20.31728571	     -1.67221546	     -3.63312950	      8.70237488	      0.95751581	      0.91396837	      0.56924814	     14.42726743	      4.87178673	     -7.04607054	     29.84874440	     29.84874440	     19.15331513	     -9.78545621	     -0.61472614	     33.06343595	    -13.56688521	      7.78463955	     58.01214059	     58.01214059	      8.01191235	    -18.55467020	      9.15526384	    -10.78407523	      3.90713244	      0.90566512	     29.09353703	    -18.39726998	     -8.53024972	     53.00148034	     42.76591136	      0.00000000	      0.00000000	     -4.95493107	     -8.21558836	      7.14195369	     20.99494644	     40.45088541	      0.00000000	      0.00000000
     20.33850000	     -1.67002919	     -3.61601626	      9.42905385	      0.95637431	      0.91439964	      0.56936144	     13.98200793	      4.88002761	     -7.49744271	     29.43438255	     29.43438255	     19.20054353	     -9.98381994	     -0.52293061	     33.63692305	    -13.16526803	      7.53575050	     55.13350158	     55.13350158	      7.86429224	    -18.61185534	      9.63939620	    -10.72696053	      3.92766488	      1.25615146	     31.80649903	    -18.67222909	     -8.79524219	     54.70217519	     42.75698911	      0.00000000	      0.00000000	     -6.97174926	     -8.14537987	      7.26605337	     20.52197342	     40.43737374	      0.00000000	      0.00000000
     20.35971429	     -1.89180232	     -3.58225794	     10.14645084	      0.95507040	      0.91500094	      0.56902148	     13.69499847	      4.79770501	     -7.98617073	     28.85627047	     28.85627047	     19.16127432	    -10.06396608	     -0.39516903	     34.17773900	    -12.65267788	      7.23815133	     51.73251436	     51.73251436	      7.40389432	    -18.35978830	     10.11944302	    -10.42008602	      3.94375538	      1.79392522	     34.43338334	    -19.28776867	     -9.05673297	     56.17504842	     42.74209928	      0.00000000	      0.00000000	     -8.71293817	     -8.09734345	      7.32936450	     20.18934415	     40.41225756	      0.00000000	      0.00000000
     20.38092857	     -1.87259214	     -3.43604417	     10.87455663	      0.95403697	      0.91661592	      0.56823810	     12.87241828	      4.61331736	     -8.59178979	     27.85360603	     27.85360603	     19.05160735	     -9.77481622	     -0.25334033	     33.97151360	    -11.99133805	      6.99649211	     47.65494816	     47.65494816	      6.44327779	    -18.03198139	     10.27478802	    -10.44692109	      3.92765777	      1.58479033	     37.06562404	    -19.00906213	     -9.10810652	     58.66594277	     42.69598829	      0.00000000	      0.00000000	    -10.70976175	     -8.09209462	      7.48700983	     20.34912905	     40.37035317	      0.00000000	      0.00000000
     20.40214286	     -2.05228078	     -3.42376154	     11.55925470	      0.95294428	      0.91783752	      0.56720162	     12.31024713	      4.47693573	     -9.37840837	     26.88404960	     26.88404960	     18.71564845	     -9.33405265	     -0.87151320	     33.70181658	    -11.57409731	      6.56900910	     43.07164507	     43.07164507	      3.46261639	    -17.64053706	      5.72046977	    -10.30714050	      4.07604310	      1.81102168	     38.87595923	    -19.56182276	     -8.76986149	     63.10876556	     43.53072140	      0.00000000	      0.00000000	    -13.95978056	     -9.81209622	     16.71667820	     25.47182490	     40.39228098	      0.00000000	      0.00000000
     20.42335714	     -2.22742194	     -3.29710679	     12.11346485	      0.95189538	      0.91950239	      0.56589849	     11.62610638	      4.27208011	     -9.91819902	     25.76263266	     25.76263266	     18.52792522	     -8.89923679	     -0.67192202	     33.34600095	    -11.00954923	      6.18877420	     38.81472084	     38.81472084	      2.29272872	    -16.17262042	      6.35350710	    -10.11430652	      4.04504288	      2.00055709	     41.37312481	    -19.69441016	     -8.74605489	     65.01396550	     43.49641620	      0.00000000	      0.00000000	    -15.27897655	     -9.70704988	     16.78868858	     25.56357721	     40.40771137	      0.00000000	      0.00000000
     20.44457143	     -2.41297970	     -3.29127968	     12.64963392	      0.95095175	      0.92091895	      0.56438928	     10.91841229	      4.14374141	    -10.70701815	     24.54579572	     24.54579572	     18.23847946	     -8.09614706	     -0.90968496	     32.90975071	    -10.62717738	      5.82015996	     34.57235017	     34.57235017	     -0.00764453	    -14.60388602	      4.31466696	     -9.98048230	      4.18790734	      2.18099785	     43.23699446	    -20.25175897	     -7.96071530	     69.16099988	     43.50789996	      0.00000000	      0.00000000	    -17.22623397	    -10.07643744	     17.27418378	     28.39610068	     40.67192535	      0.00000000	      0.00000000
     20.46578571	     -2.57093784	     -3.23377901	     13.03465887	      0.95012460	      0.92236606	      0.56277924	     10.21265435	      3.99198140	    -11.30830910	     23.43646645	     23.43646645	     18.05326630	     -7.32441334	     -0.84179384	     32.50541326	    -10.31176958	      5.27422451	     30.94291846	     30.94291846	     -1.19781396	    -12.21315107	      4.87825963	     -9.82203695	      4.24871306	      2.19106090	     45.72278113	    -20.04667020	     -7.75246691	     71.38509155	     43.46700437	      0.00000000	      0.00000000	    -18.30970646	     -9.82067687	     17.56189219	     28.69612402	     40.68342839	      0.00000000	      0.00000000
